<svg id="e1yb8avl0inm1" xmlns="http://www.w3.org/2000/svg" xmlns:xlink="http://www.w3.org/1999/xlink" viewBox="0 0 104 105" shape-rendering="geometricPrecision" text-rendering="geometricPrecision" width="104" height="105"><style><![CDATA[#e1yb8avl0inm6_to {animation: e1yb8avl0inm6_to__to 3000ms linear infinite normal forwards}@keyframes e1yb8avl0inm6_to__to { 0% {transform: translate(6739.500000px,-773px)} 36.666667% {transform: translate(6739.500000px,-773px);animation-timing-function: cubic-bezier(0.420000,0,1,1)} 73.333333% {transform: translate(6739.500000px,-705.500000px)} 100% {transform: translate(6739.500000px,-705.500000px)} }]]></style><defs><linearGradient id="e1yb8avl0inm5-fill" x1="0.500000" y1="0.395000" x2="0.500000" y2="1" spreadMethod="pad" gradientUnits="objectBoundingBox"><stop id="e1yb8avl0inm5-fill-0" offset="0%" stop-color="rgb(0,96,152)"/><stop id="e1yb8avl0inm5-fill-1" offset="100%" stop-color="rgb(0,48,76)"/></linearGradient></defs><g id="e1yb8avl0inm2" transform="matrix(1 0 0 1 -154 -407)"><path id="e1yb8avl0inm3" d="M52,0C80.719000,0,104,23.505000,104,52.500000C104,81.495000,80.719000,105,52,105C23.281000,105,0,81.495000,0,52.500000C0,23.505000,23.281000,0,52,0Z" transform="matrix(1 0 0 1 154 407)" opacity="0.2" fill="rgb(0,0,0)" stroke="none" stroke-width="1"/><g id="e1yb8avl0inm4" transform="matrix(1 0 0 1 -6556 1150)"><path id="e1yb8avl0inm5" d="M0,0L14.688000,0C16.676000,0,16.120000,4.852000,18.778000,4.852000L50,4.852000L50,44L0,44Z" transform="matrix(1 0 0 1 6737 -718)" fill="url(#e1yb8avl0inm5-fill)" stroke="none" stroke-width="1"/><g id="e1yb8avl0inm6_to" transform="translate(6739.500000,-773)"><rect id="e1yb8avl0inm6" width="45" height="30" rx="0" ry="0" transform="translate(0,0)" fill="rgb(255,255,255)" stroke="none" stroke-width="1"/></g><path id="e1yb8avl0inm7" d="M-5.059133,0L63.192121,0L57.376643,34L0.190330,34Z" transform="matrix(1 0 0 1 6733 -697)" fill="rgb(0,114,187)" stroke="none" stroke-width="1"/></g></g></svg>