<svg id="Component_225_2" data-name="Component 225 – 2" xmlns="http://www.w3.org/2000/svg" width="87" height="33" viewBox="0 0 87 33">
  <g id="_icon_Back" data-name="[icon]Back" transform="translate(-320 -189)">
    <g id="Ellipse_114" data-name="Ellipse 114" transform="translate(320 189)" fill="#fff" stroke="#ddd" stroke-width="1">
      <circle cx="16.5" cy="16.5" r="16.5" stroke="none"/>
      <circle cx="16.5" cy="16.5" r="16" fill="none"/>
    </g>
    <g id="Button_-_Default_Text_FAB" data-name="Button - Default Text FAB" transform="translate(353 212.505) rotate(180)">
      <g id="Shape" transform="translate(0 -9.495)">
        <g id="Border" fill="none" opacity="0">
          <path d="M33,16.5c0,9.113-33,9.113-33,0S33,7.387,33,16.5Z" stroke="none"/>
          <path d="M 16.5 11.66547012329102 C 12.46663093566895 11.66547012329102 8.583860397338867 12.24334907531738 5.847280502319336 13.25093078613281 C 4.512590408325195 13.74234962463379 3.456439971923828 14.33411026000977 2.792999267578125 14.96223068237305 C 2.082199096679688 15.63520050048828 2 16.16216087341309 2 16.5 C 2 16.83783912658691 2.082199096679688 17.36479949951172 2.792999267578125 18.03776931762695 C 3.456439971923828 18.66588973999023 4.512590408325195 19.25764083862305 5.847280502319336 19.74905967712402 C 8.583860397338867 20.75664138793945 12.46661949157715 21.33452033996582 16.5 21.33452033996582 C 20.53337860107422 21.33452033996582 24.41613960266113 20.75664138793945 27.15271949768066 19.74905967712402 C 28.4874095916748 19.25764083862305 29.54356002807617 18.66588973999023 30.20700073242188 18.03776931762695 C 30.91780090332031 17.36479949951172 31 16.83783912658691 31 16.5 C 31 16.16216087341309 30.91780090332031 15.63520050048828 30.20700073242188 14.96223068237305 C 29.54356002807617 14.33411026000977 28.4874095916748 13.74234962463379 27.15271949768066 13.25093078613281 C 24.41613960266113 12.24334907531738 20.53337097167969 11.66547012329102 16.5 11.66547012329102 M 16.5 9.665475845336914 C 24.75 9.665475845336914 33 11.94364929199219 33 16.5 C 33 21.05635070800781 24.75 23.33452606201172 16.5 23.33452606201172 C 8.25 23.33452606201172 0 21.05635070800781 0 16.5 C 0 11.94364929199219 8.25 9.665475845336914 16.5 9.665475845336914 Z" stroke="none" fill="#0072bb"/>
        </g>
      </g>
      <g id="Icon" transform="translate(8.5)">
        <g id="Seta_Reta_Icon" data-name="Seta Reta Icon" transform="translate(16) rotate(90)">
          <path id="Path_563" data-name="Path 563" d="M184.231,6650.272l-7.007-7.016-7.015,7.016" transform="translate(-170.208 -6643.257)" fill="none" stroke="#0072bb" stroke-miterlimit="10" stroke-width="1.3"/>
          <line id="Line_144" data-name="Line 144" y2="16" transform="translate(7.015)" fill="none" stroke="#0072bb" stroke-miterlimit="10" stroke-width="1.3"/>
        </g>
      </g>
    </g>
  </g>
  <g id="Group_225" data-name="Group 225" transform="translate(-75 -121)">
    <g id="Rectangle_292" data-name="Rectangle 292" transform="translate(75 121)" fill="#fff" stroke="#ddd" stroke-width="1">
      <rect width="87" height="33" rx="16.5" stroke="none"/>
      <rect x="0.5" y="0.5" width="86" height="32" rx="16" fill="none"/>
    </g>
    <g id="Button_-_Default_Text_FAB-2" data-name="Button - Default Text FAB" transform="translate(109 144.505) rotate(180)">
      <g id="Shape-2" data-name="Shape" transform="translate(0 -9.495)">
        <g id="Border-2" data-name="Border" fill="none" opacity="0">
          <path d="M33,16.5c0,9.113-33,9.113-33,0S33,7.387,33,16.5Z" stroke="none"/>
          <path d="M 16.5 11.66547012329102 C 12.46663093566895 11.66547012329102 8.583860397338867 12.24334907531738 5.847280502319336 13.25093078613281 C 4.512590408325195 13.74234962463379 3.456439971923828 14.33411026000977 2.792999267578125 14.96223068237305 C 2.082199096679688 15.63520050048828 2 16.16216087341309 2 16.5 C 2 16.83783912658691 2.082199096679688 17.36479949951172 2.792999267578125 18.03776931762695 C 3.456439971923828 18.66588973999023 4.512590408325195 19.25764083862305 5.847280502319336 19.74905967712402 C 8.583860397338867 20.75664138793945 12.46661949157715 21.33452033996582 16.5 21.33452033996582 C 20.53337860107422 21.33452033996582 24.41613960266113 20.75664138793945 27.15271949768066 19.74905967712402 C 28.4874095916748 19.25764083862305 29.54356002807617 18.66588973999023 30.20700073242188 18.03776931762695 C 30.91780090332031 17.36479949951172 31 16.83783912658691 31 16.5 C 31 16.16216087341309 30.91780090332031 15.63520050048828 30.20700073242188 14.96223068237305 C 29.54356002807617 14.33411026000977 28.4874095916748 13.74234962463379 27.15271949768066 13.25093078613281 C 24.41613960266113 12.24334907531738 20.53337097167969 11.66547012329102 16.5 11.66547012329102 M 16.5 9.665475845336914 C 24.75 9.665475845336914 33 11.94364929199219 33 16.5 C 33 21.05635070800781 24.75 23.33452606201172 16.5 23.33452606201172 C 8.25 23.33452606201172 0 21.05635070800781 0 16.5 C 0 11.94364929199219 8.25 9.665475845336914 16.5 9.665475845336914 Z" stroke="none" fill="#0072bb"/>
        </g>
      </g>
      <g id="Icon-2" data-name="Icon" transform="translate(8.5)">
        <g id="Seta_Reta_Icon-2" data-name="Seta Reta Icon" transform="translate(16) rotate(90)">
          <path id="Path_563-2" data-name="Path 563" d="M184.231,6650.272l-7.007-7.016-7.015,7.016" transform="translate(-170.208 -6643.257)" fill="none" stroke="#0072bb" stroke-miterlimit="10" stroke-width="1.3"/>
          <line id="Line_144-2" data-name="Line 144" y2="16" transform="translate(7.015)" fill="none" stroke="#0072bb" stroke-miterlimit="10" stroke-width="1.3"/>
        </g>
      </g>
    </g>
    <text id="Voltar" transform="translate(110 128)" fill="#0872bb" font-size="16" font-family="SenticoSansDT-Regular, SenticoSansDT"><tspan x="0" y="14">Voltar</tspan></text>
  </g>
</svg>
