<svg xmlns="http://www.w3.org/2000/svg" xmlns:xlink="http://www.w3.org/1999/xlink" width="141.227" height="68" viewBox="0 0 141.227 68">
  <defs>
    <clipPath id="clip-path">
      <path id="Path_608" data-name="Path 608" d="M92.437,29.481,70.889,36.352a.437.437,0,0,0-.25.25l-3.623,8.932a.437.437,0,0,0,.5.562L86.5,39.974l2.124,5.871A.375.375,0,0,0,89,46.1h9.681a.375.375,0,0,0,.375-.562l-6.121-15.8a.375.375,0,0,0-.375-.25h-.125M35.786.812a.375.375,0,0,0-.375.25L24.481,24.984,13.613,1.062a.375.375,0,0,0-.375-.25H.372A.375.375,0,0,0,0,1.249V45.721a.375.375,0,0,0,.375.375H9.241a.375.375,0,0,0,.375-.375V13.491l11.243,26.8a.437.437,0,0,0,.375.25h6.558a.375.375,0,0,0,.375-.25l11.243-26.8V45.721a.437.437,0,0,0,.437.437h8.869a.375.375,0,0,0,.375-.375V1.249a.375.375,0,0,0-.375-.375Zm34.353,0a.375.375,0,0,0-.375.25L52.588,45.533a.375.375,0,0,0,.375.562h8.994l5.621-13.741,8.307-21.736,6.746,17.614a.375.375,0,0,0,.5.25l7.932-2.561a.375.375,0,0,0,.25-.5L82.069,1.062a.375.375,0,0,0-.375-.25ZM121.918,0C108.677,0,97.809,9.119,97.809,23.422s10.868,23.485,24.109,23.485a25.109,25.109,0,0,0,19.175-8.432.437.437,0,0,0,.125-.25V20.05a.375.375,0,0,0-.375-.375H125.728c-.25,0-3.061,7.87-3.061,7.87a.375.375,0,0,0,.375.375h8.619v6.933a15.3,15.3,0,0,1-9.806,3.435c-8.245,0-14.178-6.308-14.178-14.865s6-14.865,14.178-14.865a12.867,12.867,0,0,1,8.744,3.31.375.375,0,0,0,.375.062l8.557-2.748a.437.437,0,0,0,.187-.625C136.159,3.81,130.475,0,121.918,0Z" transform="translate(0.008)" fill="none"/>
    </clipPath>
    <linearGradient id="linear-gradient" y1="1.449" x2="0.004" y2="1.449" gradientUnits="objectBoundingBox">
      <stop offset="0" stop-color="#00b3e0"/>
      <stop offset="1" stop-color="#0064af"/>
    </linearGradient>
    <clipPath id="clip-path-2">
      <rect id="Rectangle_247" data-name="Rectangle 247" width="141.222" height="68" fill="none"/>
    </clipPath>
  </defs>
  <g id="MAG_SEGUROS" data-name="MAG SEGUROS" transform="translate(70.613 34)">
    <g id="MAG_SEGUROS-2" data-name="MAG SEGUROS" transform="translate(-70.613 -34)">
      <g id="Group_93" data-name="Group 93" clip-path="url(#clip-path)">
        <rect id="Rectangle_246" data-name="Rectangle 246" width="141.222" height="46.92" transform="translate(0.005)" fill="url(#linear-gradient)"/>
      </g>
      <g id="Group_94" data-name="Group 94" transform="translate(0.005)" clip-path="url(#clip-path-2)">
        <path id="Path_609" data-name="Path 609" d="M123.287,102.018a.437.437,0,0,1-.187-.375.5.5,0,0,1,.5-.5l.312.125a4.122,4.122,0,0,0,2.873,1.062c1.249,0,2.061-.625,2.061-1.561h0c0-.874-.437-1.312-2.373-1.749s-3.061-1.124-3.061-2.623h0c0-1.437,1.249-2.5,3-2.5a4.559,4.559,0,0,1,2.873.874.562.562,0,0,1,.25.437.5.5,0,0,1-.5.5h-.312a3.81,3.81,0,0,0-2.373-.812c-1.187,0-1.936.625-1.936,1.5h0c0,.874.437,1.374,2.5,1.811s3,1.187,3,2.623h0c0,1.561-1.312,2.623-3.123,2.623a5.246,5.246,0,0,1-3.435-1.249" transform="translate(-46.212 -35.248)" fill="#425161"/>
        <path id="Path_610" data-name="Path 610" d="M137.8,103.119a.5.5,0,0,1-.5-.5V94.5a.5.5,0,0,1,.5-.5h5.684a.5.5,0,0,1,0,.937h-5.122V98.06h4.56a.5.5,0,0,1,.5.5.437.437,0,0,1-.5.5h-4.56v3.185h5.184a.5.5,0,0,1,0,.937Z" transform="translate(-51.543 -35.288)" fill="#425161"/>
        <path id="Path_611" data-name="Path 611" d="M150.562,98.445h0a4.622,4.622,0,0,1,4.56-4.747,4.809,4.809,0,0,1,3.123,1,.5.5,0,0,1-.312.937l-.312-.125a3.81,3.81,0,0,0-2.5-.812,3.58,3.58,0,0,0-3.435,3.748h0a3.526,3.526,0,0,0,3.623,3.81,4.247,4.247,0,0,0,2.623-.937V99.007H155.5a.468.468,0,1,1,0-.937h2.811a.5.5,0,0,1,.5.5v2.811a.749.749,0,0,1-.375.625,5.5,5.5,0,0,1-3.31,1.124,4.491,4.491,0,0,1-4.622-4.747" transform="translate(-56.498 -35.173)" fill="#425161"/>
        <path id="Path_612" data-name="Path 612" d="M167.262,99.234V94.3a.5.5,0,1,1,1,0v4.809c0,2,1.062,3.123,2.811,3.123s2.748-1,2.748-3.061V94.3a.5.5,0,0,1,1,0v4.809c0,2.686-1.5,4.06-3.81,4.06s-3.81-1.374-3.81-4" transform="translate(-62.767 -35.213)" fill="#425161"/>
        <path id="Path_613" data-name="Path 613" d="M183.4,94.5a.5.5,0,0,1,.5-.5h3.435a3.56,3.56,0,0,1,2.561.937,2.5,2.5,0,0,1,.687,1.811h0a2.7,2.7,0,0,1-2.436,2.686l2.249,2.936a.489.489,0,0,1-.312.874.625.625,0,0,1-.5-.25l-2.561-3.373H184.4v3.123a.5.5,0,1,1-1,0Zm3.81,4.185c1.374,0,2.373-.687,2.373-1.874h0c0-1.124-.874-1.811-2.311-1.811H184.4v3.748Z" transform="translate(-68.849 -35.286)" fill="#425161"/>
        <path id="Path_614" data-name="Path 614" d="M197.8,98.5h0a4.653,4.653,0,1,1,9.306,0h0a4.653,4.653,0,1,1-9.306,0m8.245,0h0a3.6,3.6,0,1,0-7.183-.062h0a3.6,3.6,0,1,0,7.183.062" transform="translate(-74.255 -35.231)" fill="#425161"/>
        <path id="Path_615" data-name="Path 615" d="M215.487,102.018a.437.437,0,0,1-.187-.375.5.5,0,0,1,.5-.5l.312.125a4.122,4.122,0,0,0,2.873,1.062c1.249,0,2.061-.625,2.061-1.561h0c0-.874-.437-1.312-2.373-1.749s-3.061-1.124-3.061-2.623h0c0-1.437,1.249-2.5,3-2.5a4.56,4.56,0,0,1,2.873.874.562.562,0,0,1,.25.437.5.5,0,0,1-.5.5h-.312a3.81,3.81,0,0,0-2.373-.812c-1.187,0-1.936.625-1.936,1.5h0c0,.874.437,1.374,2.5,1.811s3,1.187,3,2.623h0c0,1.561-1.312,2.623-3.123,2.623a5.247,5.247,0,0,1-3.435-1.249" transform="translate(-80.824 -35.248)" fill="#425161"/>
      </g>
    </g>
  </g>
</svg>
