<svg xmlns="http://www.w3.org/2000/svg" width="325.558" height="226.356" viewBox="0 0 325.558 226.356">
  <g id="Group_223" data-name="Group 223" transform="translate(-218.066 -310.508)">
    <g id="Group_169" data-name="Group 169" transform="translate(218.066 310.508)">
      <path id="Path_730" data-name="Path 730" d="M559.666,441.407c-12.409-.367-25.49-2.777-32.624-13.511-12.727-19.15-3.658-47.311-47.365-67.957-32.653-15.424-34.673-58.568-71.6-47.694-30.551-3.02-32.184,29.431-38.394,41.383-9.731,18.728-28.338,21.469-30.872,54.35-1.366,17.72-1.066,28.267-13.888,36.3-18.991,11.9-28.755,16.282-27.382,34.336,1.006,13.217,18.479,20.867,41.377,24.01,23.072,3.166,37.784,5.992,48.641,17.82,19.831,21.608,40.679,20,68.22,6.128,17.882-9,35.436-7.137,64.386-2.257,28.7,4.837,29.935-28.9,54.015-32.4,24.819-3.615,30.137-16.731,28.778-27.795C601.688,453.818,588.521,442.26,559.666,441.407Z" transform="translate(-285.895 -310.508)" fill="#a5a5a5"/>
      <path id="Path_731" data-name="Path 731" d="M847.98,652.98c4.207,40.537-12.88,68.63-42.089,68.677s-34.024-18.273-37.95-16.926c-6.371,2.188-6.06-20.731-5.446-30.8,1.837-30.135,12.927-65.671,49.07-60.376C836.33,617.182,845.18,626.005,847.98,652.98Z" transform="translate(-683.223 -569.123)" fill="#1d1d1d"/>
      <g id="Group_164" data-name="Group 164" transform="translate(84.549 56.821)">
        <path id="Path_732" data-name="Path 732" d="M901.829,786.536s48.111-14.824,64.289-66.115c6.522-20.678,17.536,20.4,14.7,57.063-1.254,16.207-5.277,30.137-12.893,41.167C954.818,837.631,903.452,844.562,901.829,786.536Z" transform="translate(-887.146 -713.005)" fill="#929292"/>
        <path id="Path_733" data-name="Path 733" d="M1334.932,802.461s-57.663-101.475-18.145-100.418c28.9.773,31.587,97.126,31.587,97.126C1348.741,802.095,1335.846,803.878,1334.932,802.461Z" transform="translate(-1230.05 -702.035)" fill="#929292"/>
        <path id="Path_734" data-name="Path 734" d="M800.825,858.226s39.835-14.357,56.013-65.647c0,0,20.434.4,20.467,45.61,0,4.133-2.3,35.939-18.864,54.868C842.629,911.122,797.522,904.826,800.825,858.226Z" transform="translate(-800.652 -779.439)" fill="#929292"/>
      </g>
      <path id="Path_735" data-name="Path 735" d="M1213,1218.676c1.946-.363,5.265-1.231,5.519-2.115.412-1.43-6.581.606-9.442-.08-2.1-.5-5.154-2.358-5.239-3.045.312-2.087,6.787-2.022,7.943-3.451.7-.86-1.228-1.454-5.045-.693-3.463.691-4.9-.391-7.975-.284-1.154.04-3.405.218-5.706.306-1.84.07-4.9-1.793-4.9-1.793l-1.7,8.623c1.393,1.143,14.314,9.5,20,9.788,6.391.324,10.712-1.675,11.455-2.653.371-.488-1.61-.7-2.632-.6,2.019-.559,4.127-1.107,4.551-1.718.547-.79-3.276-.536-6.277-.009,2.814-.682,6.421-1.478,6.9-2.3C1221.309,1217.22,1215.864,1218.262,1213,1218.676Z" transform="translate(-1045.916 -1077.341)" fill="#f8f8f8"/>
      <path id="Path_736" data-name="Path 736" d="M1207.531,834.446s-65.43-101.672-23.487-109.14c30.146-5.367,37.2,105.629,37.2,105.629C1221.934,835,1209.471,836.04,1207.531,834.446Z" transform="translate(-1031.858 -664.947)" fill="#929292"/>
      <path id="Path_737" data-name="Path 737" d="M848.39,709.4c-18.716-7.29-38.026-10.921-51.564-24.88a39.094,39.094,0,0,1-10.31-23.8c-.062-.547-.1-1.106-.137-1.664-1.491-24.447,13.014-52.984,45.776-51.364l-10.587,25.555c5.677,11.13.643,24.15,6,30.6,10.658,12.844,17.762,26.917,25.771,30.059C855.606,694.792,851.223,710.5,848.39,709.4Z" transform="translate(-703.814 -564.505)" fill="#1d1d1d"/>
      <g id="Group_166" data-name="Group 166" transform="translate(82.478 96.698)">
        <g id="Group_165" data-name="Group 165">
          <path id="Path_738" data-name="Path 738" d="M802.649,1005.821a.476.476,0,0,1-.287-.1c-12.282-9.319-15.931-28.161-15.967-28.351a.476.476,0,0,1,.937-.175c.035.185,3.62,18.672,15.606,27.766a.477.477,0,0,1-.288.856Z" transform="translate(-786.387 -976.81)" fill="#929292"/>
        </g>
      </g>
      <g id="Group_168" data-name="Group 168" transform="translate(0 36.505)">
        <path id="Path_739" data-name="Path 739" d="M1352.422,823.069a.484.484,0,0,1-.481-.44c-3.984-43.683-14.516-77.593-26.206-84.38a.484.484,0,1,1,.486-.837c11.949,6.937,22.673,41.148,26.684,85.13a.484.484,0,0,1-.438.525Z" transform="translate(-1164.777 -711.906)" fill="#0072bb" stroke="#a5a5a5" stroke-width="1"/>
        <g id="Group_167" data-name="Group 167" transform="translate(137.493 44.211)">
          <path id="Path_740" data-name="Path 740" d="M1180.614,914.87a.477.477,0,0,1-.421-.255,139.887,139.887,0,0,1-14.723-47.4.476.476,0,1,1,.947-.106,138.9,138.9,0,0,0,14.62,47.061.476.476,0,0,1-.423.7Z" transform="translate(-1165.467 -866.688)" fill="#0072bb" stroke="#a5a5a5" stroke-width="1"/>
        </g>
        <path id="Path_741" data-name="Path 741" d="M321.937,736.608c-14.256-9.261-32.684-11.452-50.506-13.569-23-2.733-44.72-5.315-51.6-23.734-5.386-14.416,1.336-25.82,23.2-39.361,17.569-10.883,20.109-24.6,22.8-39.119.761-4.111,1.549-8.363,2.692-12.6,2.6-9.622,8.568-14.422,15.481-19.982,7.227-5.812,15.419-12.4,22.93-26.2l.849.463c-7.6,13.967-15.875,20.62-23.173,26.488-7.061,5.678-12.638,10.163-15.153,19.48-1.134,4.2-1.918,8.431-2.675,12.523-2.73,14.737-5.308,28.657-23.24,39.765-21.385,13.245-27.992,24.311-22.8,38.2,6.675,17.867,28.113,20.414,50.809,23.112,17.932,2.131,36.474,4.334,50.919,13.719Z" transform="translate(-218.066 -562.047)" fill="#a5a5a5"/>
        <path id="Path_742" data-name="Path 742" d="M1339.648,828.458c-6.451,0-13.276-1.757-20.7-3.671-17.387-4.475-37.093-9.55-63.347,3.618l-.434-.865c26.577-13.33,47.339-7.983,64.022-3.689,18.86,4.855,33.756,8.691,48.5-15.7,9.869-16.332,22.336-17.574,33.336-18.671,9.948-.992,19.344-1.928,25.477-13.788,3.567-6.9,3.657-13.785.263-19.914-5.806-10.481-21-17.7-40.632-19.312l-1.152-.093c-12.8-1.026-32.133-2.577-41.225-26.192-12.809-33.268-29.21-40.652-43.681-47.166q-1.1-.493-2.172-.982l.4-.881q1.074.489,2.168.98c14.641,6.591,31.235,14.062,44.187,47.7,8.873,23.047,27.845,24.568,40.4,25.575l1.154.094c19.959,1.637,35.435,9.042,41.4,19.806,3.56,6.427,3.474,13.628-.249,20.828-6.374,12.325-16.023,13.288-26.24,14.307-11.3,1.126-22.986,2.292-32.6,18.209C1359.23,824.006,1349.913,828.457,1339.648,828.458Z" transform="translate(-1104.653 -646.767)" fill="#929292"/>
      </g>
    </g>
    <g id="Group_170" data-name="Group 170" transform="translate(297.39 449.151)">
      <path id="Path_743" data-name="Path 743" d="M887.824,1273.242c-.677,4.221-11.723,3.423-14.155,3.2a.969.969,0,0,0-.795.308c-6.823,7.223-20.519,4.389-23.231.818a.606.606,0,0,0-.806-.14c-24.287,14.821-74.061,5.039-78.96-11.59-17.316,22.3,12.157,40.042,33.837,43.9,32.788,5.836,45.6,2.655,48.64-7.37,9.83,9.354,33.371,1.133,39.334-4.887C900.235,1288.847,892.972,1261.557,887.824,1273.242Z" transform="translate(-764.653 -1265.833)" fill="#a5a5a5"/>
    </g>
    <g id="Group_171" data-name="Group 171" transform="translate(285.642 446.307)">
      <path id="Path_744" data-name="Path 744" d="M748.76,1287.131c-21.489,0-43.772-7.162-55.692-17.52-8.071-7.013-11.007-14.979-8.489-23.038a.484.484,0,1,1,.923.289c-2.394,7.663.442,15.277,8.2,22.018,17.825,15.488,59.111,23.741,85.626,11.165.468-.222.937-.462,1.408-.7,2.207-1.128,4.487-2.295,6.979-1.838,20.508,3.771,36.879-.651,48.656-13.136a.483.483,0,0,1,.7.663c-12.016,12.741-28.685,17.254-49.534,13.425-2.171-.4-4.3.692-6.363,1.746-.48.246-.957.49-1.434.716C770.633,1285.24,759.8,1287.131,748.76,1287.131Z" transform="translate(-683.702 -1246.233)" fill="#a5a5a5" stroke="#929292" stroke-width="1"/>
    </g>
    <g id="Group_222" data-name="Group 222" transform="translate(304.195 312.141)">
      <g id="Group_178" data-name="Group 178" transform="translate(28.025 27.031)">
        <g id="Group_177" data-name="Group 177">
          <g id="Group_176" data-name="Group 176">
            <g id="Group_175" data-name="Group 175">
              <g id="Group_174" data-name="Group 174">
                <g id="Group_173" data-name="Group 173">
                  <g id="Group_172" data-name="Group 172">
                    <path id="Path_745" data-name="Path 745" d="M1008.2,508.018l-3.527,22.75c-.646,5.868,19.745,6.969,20.683.617v-9.07Z" transform="translate(-1004.654 -508.018)" fill="#f8f8f8"/>
                  </g>
                </g>
              </g>
            </g>
          </g>
        </g>
      </g>
      <g id="Group_221" data-name="Group 221" transform="translate(0 0)">
        <g id="Group_214" data-name="Group 214" transform="translate(29.938 6.135)">
          <g id="Group_200" data-name="Group 200">
            <g id="Group_185" data-name="Group 185">
              <g id="Group_184" data-name="Group 184">
                <g id="Group_183" data-name="Group 183">
                  <g id="Group_182" data-name="Group 182">
                    <g id="Group_181" data-name="Group 181">
                      <g id="Group_180" data-name="Group 180">
                        <g id="Group_179" data-name="Group 179">
                          <path id="Path_746" data-name="Path 746" d="M1044.469,383.059a26.476,26.476,0,0,1,.468,3.541,14.939,14.939,0,0,1-.654,4.746c-1.274,4.1-3.541,9.647-7.66,10.3-8.815,1.4-19.086-6.488-18.779-17.287.268-9.424,7.946-24.517,11.252-19.23,5.131,8.2,9.836,4.5,13.438,9.538.755,1.055,1.48,2.4,1.693,5.614C1044.3,381.314,1044.338,382.217,1044.469,383.059Z" transform="translate(-1017.838 -364.035)" fill="#f8f8f8"/>
                        </g>
                      </g>
                    </g>
                  </g>
                </g>
              </g>
            </g>
            <g id="Group_192" data-name="Group 192" transform="translate(3.659 21.857)">
              <g id="Group_191" data-name="Group 191">
                <g id="Group_190" data-name="Group 190">
                  <g id="Group_189" data-name="Group 189">
                    <g id="Group_188" data-name="Group 188">
                      <g id="Group_187" data-name="Group 187">
                        <g id="Group_186" data-name="Group 186">
                          <path id="Path_747" data-name="Path 747" d="M1051.33,518.307a4.153,4.153,0,1,1-4.614-3.634A4.154,4.154,0,0,1,1051.33,518.307Z" transform="translate(-1043.052 -514.643)" fill="#f8f8f8"/>
                        </g>
                      </g>
                    </g>
                  </g>
                </g>
              </g>
            </g>
            <g id="Group_199" data-name="Group 199" transform="translate(22.668 19.025)">
              <g id="Group_198" data-name="Group 198">
                <g id="Group_197" data-name="Group 197">
                  <g id="Group_196" data-name="Group 196">
                    <g id="Group_195" data-name="Group 195">
                      <g id="Group_194" data-name="Group 194">
                        <g id="Group_193" data-name="Group 193">
                          <path id="Path_748" data-name="Path 748" d="M1178.461,498.666a12.9,12.9,0,0,1-.655,4.746,4.154,4.154,0,0,1-.114-8.262c.1-.012.2-.019.3-.025A26.517,26.517,0,0,1,1178.461,498.666Z" transform="translate(-1174.029 -495.125)" fill="#f8f8f8"/>
                        </g>
                      </g>
                    </g>
                  </g>
                </g>
              </g>
            </g>
          </g>
          <g id="Group_213" data-name="Group 213" transform="translate(6.999 16.535)">
            <g id="Group_203" data-name="Group 203" transform="translate(7.986 12.434)">
              <g id="Group_202" data-name="Group 202">
                <g id="Group_201" data-name="Group 201">
                  <path id="Path_749" data-name="Path 749" d="M1127.117,564.812a.246.246,0,0,1-.025.042.228.228,0,0,1-.318.044c-2.779-2.095-5.179.539-5.28.652a.227.227,0,0,1-.34-.3c.027-.031,2.777-3.063,5.894-.713A.227.227,0,0,1,1127.117,564.812Z" transform="translate(-1121.096 -563.644)" fill="#1d1d1d"/>
                </g>
              </g>
            </g>
            <g id="Group_206" data-name="Group 206" transform="translate(9.408 2.148)">
              <g id="Group_205" data-name="Group 205">
                <g id="Group_204" data-name="Group 204">
                  <path id="Path_750" data-name="Path 750" d="M1134.293,499.325a1.552,1.552,0,0,1-.181.3,2.713,2.713,0,0,1-3.078.586.227.227,0,0,1-.128-.295.22.22,0,0,1,.295-.128,2.238,2.238,0,0,0,2.55-.44,1.194,1.194,0,0,0-.129-1.518c-2.076-2.8-2.175-4.745-2.178-4.826a.227.227,0,0,1,.454-.018,9.453,9.453,0,0,0,2.089,4.574A1.713,1.713,0,0,1,1134.293,499.325Z" transform="translate(-1130.89 -492.766)" fill="#1d1d1d"/>
                </g>
              </g>
            </g>
            <g id="Group_209" data-name="Group 209" transform="translate(0 2.401)">
              <g id="Group_208" data-name="Group 208">
                <g id="Group_207" data-name="Group 207">
                  <path id="Path_751" data-name="Path 751" d="M1073.016,494.9a.224.224,0,0,1-.062.081c-3.2,2.634-6.765-.038-6.8-.066a.227.227,0,0,1,.276-.361c.135.1,3.321,2.478,6.235.076a.227.227,0,0,1,.351.271Z" transform="translate(-1066.065 -494.51)" fill="#1d1d1d"/>
                </g>
              </g>
            </g>
            <g id="Group_212" data-name="Group 212" transform="translate(12.771)">
              <g id="Group_211" data-name="Group 211">
                <g id="Group_210" data-name="Group 210">
                  <path id="Path_752" data-name="Path 752" d="M1159.9,478.289a.244.244,0,0,1-.05.07c-3.007,2.858-5.645,1.275-5.671,1.258a.222.222,0,0,1-.073-.312.227.227,0,0,1,.312-.074c.1.059,2.375,1.406,5.119-1.2a.227.227,0,0,1,.363.26Z" transform="translate(-1154.067 -477.967)" fill="#1d1d1d"/>
                </g>
              </g>
            </g>
          </g>
        </g>
        <g id="Group_220" data-name="Group 220">
          <g id="Group_219" data-name="Group 219">
            <g id="Group_218" data-name="Group 218">
              <g id="Group_217" data-name="Group 217">
                <g id="Group_216" data-name="Group 216">
                  <g id="Group_215" data-name="Group 215">
                    <path id="Path_753" data-name="Path 753" d="M855.816,321.785s-12.882,2.069-30.285,23.7c-5.717,7.1-13.985,45.579-13.985,45.579,5.259-12.473,20.927-7.5,29.255-16.871,5.434-6.117,4.674-16.13,4.616-27.657-.049-9.779,11.307-6.36,10.68-15.537C855.4,320.822,855.816,321.785,855.816,321.785Z" transform="translate(-811.545 -321.76)" fill="#a5a5a5"/>
                  </g>
                </g>
              </g>
            </g>
          </g>
        </g>
      </g>
    </g>
  </g>
</svg>
